<?xml version="1.0" encoding="UTF-8"?>
<svg version="1.1" xmlns="http://www.w3.org/2000/svg" width="384" height="384">
<path d="M0 0 C1.13474831 -0.00538554 2.26949662 -0.01077108 3.43863124 -0.01631981 C7.21373199 -0.0305451 10.98847941 -0.02350886 14.76359558 -0.01637268 C17.48139344 -0.02043832 20.19917365 -0.02894463 22.91696167 -0.03717041 C29.51691057 -0.05431087 36.11676407 -0.05520825 42.71672944 -0.04995751 C48.08534984 -0.04590526 53.45394219 -0.04737185 58.82256126 -0.05270576 C59.97158814 -0.0538284 59.97158814 -0.0538284 61.14382767 -0.05497371 C62.70033657 -0.0565053 64.25684545 -0.05804364 65.81335434 -0.05958868 C80.38960326 -0.07329682 94.96579841 -0.06788817 109.54204609 -0.05640347 C122.85298687 -0.04647546 136.16378855 -0.05940724 149.47470788 -0.08333766 C163.16862844 -0.1077696 176.86248433 -0.11732632 190.55642623 -0.11068493 C198.23398648 -0.10720146 205.91143986 -0.10936677 213.58898354 -0.12693596 C220.12547781 -0.14170941 226.66178995 -0.14222679 233.19828085 -0.12486505 C236.52779319 -0.11639398 239.85671611 -0.11630494 243.18625259 -0.1295166 C265.85731026 -0.21257497 283.93079009 2.31108355 301.217453 18.38768005 C313.6121898 31.27640998 319.70746121 47.46141578 319.60513306 65.17022705 C319.61321136 66.87234951 319.61321136 66.87234951 319.62145287 68.60885829 C319.63567815 72.38395904 319.62864192 76.15870646 319.62150574 79.93382263 C319.62557138 82.65162049 319.63407769 85.3694007 319.64230347 88.08718872 C319.65944393 94.68713762 319.6603413 101.28699112 319.65509056 107.88695649 C319.65103831 113.25557689 319.65250491 118.62416924 319.65783882 123.99278831 C319.65858724 124.75880623 319.65933567 125.52482414 319.66010677 126.31405472 C319.66163835 127.87056362 319.6631767 129.42707251 319.66472173 130.98358139 C319.67842988 145.55983031 319.67302123 160.13602547 319.66153652 174.71227314 C319.65160852 188.02321392 319.6645403 201.3340156 319.68847071 214.64493493 C319.71290266 228.33885549 319.72245938 242.03271138 319.71581799 255.72665328 C319.71233451 263.40421353 319.71449983 271.08166691 319.73206902 278.75921059 C319.74684246 285.29570486 319.74735985 291.832017 319.7299981 298.3685079 C319.72152704 301.69802024 319.721438 305.02694316 319.73464966 308.35647964 C319.81770803 331.02753731 317.29404951 349.10101714 301.217453 366.38768005 C288.32872307 378.78241685 272.14371727 384.87768826 254.43490601 384.77536011 C253.3001577 384.78074565 252.16540939 384.78613118 250.99627477 384.79167992 C247.22117401 384.8059052 243.44642659 384.79886897 239.67131042 384.79173279 C236.95351256 384.79579843 234.23573236 384.80430474 231.51794434 384.81253052 C224.91799543 384.82967098 218.31814194 384.83056835 211.71817657 384.82531761 C206.34955617 384.82126537 200.98096382 384.82273196 195.61234474 384.82806587 C194.84632683 384.82881429 194.08030891 384.82956272 193.29107833 384.83033382 C191.73456944 384.8318654 190.17806055 384.83340375 188.62155167 384.83494879 C174.04530275 384.84865693 159.46910759 384.84324828 144.89285991 384.83176357 C131.58191914 384.82183557 118.27111745 384.83476735 104.96019813 384.85869776 C91.26627757 384.88312971 77.57242168 384.89268643 63.87847978 384.88604504 C56.20091953 384.88256156 48.52346615 384.88472688 40.84592247 384.90229607 C34.3094282 384.91706951 27.77311605 384.9175869 21.23662516 384.90022516 C17.90711282 384.89175409 14.57818989 384.89166505 11.24865341 384.90487671 C-11.42240425 384.98793508 -29.49588409 382.46427656 -46.782547 366.38768005 C-59.17728379 353.49895012 -65.2725552 337.31394432 -65.17022705 319.60513306 C-65.17561259 318.47038475 -65.18099813 317.33563644 -65.18654686 316.16650182 C-65.20077215 312.39140106 -65.19373591 308.61665364 -65.18659973 304.84153748 C-65.19066537 302.12373961 -65.19917169 299.40595941 -65.20739746 296.68817139 C-65.22453792 290.08822248 -65.2254353 283.48836899 -65.22018456 276.88840362 C-65.21613231 271.51978322 -65.2175989 266.15119087 -65.22293282 260.78257179 C-65.22368124 260.01655388 -65.22442966 259.25053596 -65.22520076 258.46130538 C-65.22673235 256.90479649 -65.22827069 255.3482876 -65.22981573 253.79177872 C-65.24352387 239.2155298 -65.23811522 224.63933464 -65.22663052 210.06308696 C-65.21670252 196.75214619 -65.22963429 183.4413445 -65.25356471 170.13042518 C-65.27799665 156.43650462 -65.28755337 142.74264873 -65.28091198 129.04870683 C-65.27742851 121.37114658 -65.27959382 113.6936932 -65.29716301 106.01614952 C-65.31193646 99.47965525 -65.31245385 92.9433431 -65.2950921 86.40685221 C-65.28662103 83.07733987 -65.28653199 79.74841695 -65.29974365 76.41888046 C-65.38280202 53.7478228 -62.8591435 35.67434296 -46.782547 18.38768005 C-33.89381707 5.99294326 -17.70881127 -0.10232815 0 0 Z " fill="#686AFF" transform="translate(64.78254699707031,-0.3876800537109375)"/>
<path d="M0 0 C3.20553734 2.05178179 6.19128418 4.30578073 9.09765625 6.76171875 C11.02761199 8.2861585 12.87196152 9.33606777 15.10546875 10.34765625 C15.56695312 9.90035156 16.0284375 9.45304687 16.50390625 8.9921875 C26.93472396 -0.67590244 36.64486617 -3.14409276 50.53125 -2.9375 C58.73128677 -2.60235781 65.62240834 0.37228431 72.10546875 5.34765625 C73.09546875 6.06953125 74.08546875 6.79140625 75.10546875 7.53515625 C81.98330515 13.45873786 85.70849369 21.74674574 88.10546875 30.34765625 C88.10546875 31.33765625 88.10546875 32.32765625 88.10546875 33.34765625 C89.31203125 33.62609375 89.31203125 33.62609375 90.54296875 33.91015625 C102.57289466 38.76433688 111.90728488 50.33198119 117.41796875 61.78515625 C121.69432302 72.22827032 122.32181036 83.46550149 119.66796875 94.34765625 C118.74331329 99.336943 119.34042654 101.58649981 122.16796875 105.78515625 C122.82023438 106.69265625 123.4725 107.60015625 124.14453125 108.53515625 C132.03902721 119.8579393 132.86150382 133.41714318 130.71948242 146.75024414 C128.26192576 158.6789324 121.94031691 169.06550009 112.390625 176.72265625 C110.41485711 179.22089164 110.51697112 181.65109978 110.23046875 184.78515625 C108.47264565 198.6476636 102.27720607 208.93879923 92.10546875 218.34765625 C91.595 218.84007812 91.08453125 219.3325 90.55859375 219.83984375 C86.15374628 223.90119394 81.7196894 226.306946 76.10546875 228.34765625 C75.31785156 228.64800781 74.53023437 228.94835937 73.71875 229.2578125 C60.71170743 233.54037629 45.45436629 232.75866951 33.125 226.94140625 C25.48224932 222.83427534 19.91640734 217.73711748 14.10546875 211.34765625 C13.47640625 212.01152344 12.84734375 212.67539062 12.19921875 213.359375 C1.27966894 224.62427202 -10.44062328 231.26668258 -26.42919922 231.64086914 C-41.64988357 231.7599456 -53.18989598 228.26324105 -64.89453125 218.34765625 C-74.75150418 208.34487011 -81.53590549 195.92711617 -82.01953125 181.66015625 C-83.24553531 177.01885517 -86.0981104 174.95660593 -89.54296875 171.73046875 C-99.67043029 161.468423 -103.19733714 147.75872809 -103.20922852 133.83789062 C-103.02939368 122.59236087 -99.90358728 113.9449598 -93.3828125 104.78515625 C-91.3716162 101.49122846 -90.65633321 98.92742943 -91.234375 95.09375 C-91.43160156 94.33191406 -91.62882812 93.57007813 -91.83203125 92.78515625 C-94.80315325 78.77549072 -91.95818558 65.54537936 -84.58203125 53.34765625 C-79.21185878 45.62803332 -73.34312505 40.1915483 -65.09375 35.671875 C-62.09626002 33.86699204 -60.30443642 32.54917721 -59.15625 29.18359375 C-58.96675781 28.37148437 -58.77726562 27.559375 -58.58203125 26.72265625 C-55.7658907 16.73551862 -48.79086906 7.79405446 -39.8203125 2.55078125 C-28.03464245 -3.42024579 -12.45006063 -6.14790605 0 0 Z " fill="#FDFDFF" transform="translate(177.89453125,77.65234375)"/>
<path d="M0 0 C5.60345549 3.25000419 9.80562628 7.70462037 12.125 13.8125 C12.70327488 17.93651047 12.68590597 22.01666052 12.65625 26.17578125 C12.66199036 27.9565229 12.66199036 27.9565229 12.66784668 29.77323914 C12.67056206 32.27876638 12.66322724 34.78432215 12.64648438 37.28979492 C12.62512855 41.10205185 12.64627161 44.91241187 12.671875 48.72460938 C12.66923055 51.16667079 12.66410315 53.60873103 12.65625 56.05078125 C12.66434692 57.18026688 12.67244385 58.3097525 12.68078613 59.47346497 C12.54884534 70.75182056 9.04095689 79.69396941 1.125 87.8125 C-3.03601777 91.17274637 -7.50755453 93.68457338 -12.3125 96 C-16.04106226 97.53070012 -16.04106226 97.53070012 -17.875 100.8125 C-18.41317798 104.20585381 -18.40284894 107.41759785 -17.875 110.8125 C-15.30272677 114.18860861 -13.56183236 114.67513353 -9.4375 115.5 C-1.98930986 115.17182304 6.06097195 109.85518537 12.125 105.8125 C12.21815209 113.46269455 12.28899231 121.11282944 12.33224869 128.76346397 C12.35302189 132.31696139 12.38114773 135.87006754 12.42675781 139.42333984 C12.47899721 143.51924143 12.49802984 147.61473942 12.515625 151.7109375 C12.53627014 152.9717514 12.55691528 154.23256531 12.57818604 155.53158569 C12.58079326 165.89141312 10.53141026 174.26823857 3.328125 181.98828125 C-4.66850928 188.60960786 -13.6777617 191.53480438 -23.875 190.8125 C-33.03245289 189.62879515 -38.77247411 185.64097693 -44.875 178.8125 C-47.16019951 175.6567483 -48.63892001 172.52073997 -49.875 168.8125 C-48.98296875 168.75191406 -48.0909375 168.69132813 -47.171875 168.62890625 C-46.00140625 168.54511719 -44.8309375 168.46132813 -43.625 168.375 C-42.46484375 168.29378906 -41.3046875 168.21257812 -40.109375 168.12890625 C-36.40508123 167.82013632 -36.40508123 167.82013632 -32.875 166.8125 C-31.43399214 162.48947641 -31.31951506 158.33044416 -31.875 153.8125 C-33.76015223 151.23612529 -35.06834857 150.21582572 -37.875 148.8125 C-39.54049894 148.70840632 -41.20756961 148.62881825 -42.875 148.5625 C-52.20092389 147.78024688 -60.02936235 143.19808013 -66.2421875 136.29296875 C-71.93021339 129.10720823 -73.51027058 120.705937 -73.2109375 111.69140625 C-72.05697206 101.80219075 -65.37734161 94.18170632 -57.76953125 88.140625 C-56.15400892 87.00809388 -54.51659519 85.9068968 -52.875 84.8125 C-51.26329612 81.58909223 -51.27957449 78.29808081 -51.875 74.8125 C-54.78660476 70.98581946 -57.45753722 69.4606962 -61.875 67.8125 C-62.79900297 57.20357697 -61.07428258 49.05398112 -54.140625 40.73046875 C-52.5 39.0625 -52.5 39.0625 -49.875 36.8125 C-45.86087091 38.15054303 -45.14494046 40.33665367 -42.875 43.8125 C-39.12331516 46.31362323 -37.35495221 46.02169111 -33.0390625 45.41015625 C-30.62821984 44.90365239 -30.62821984 44.90365239 -28.3125 42.6875 C-26.4835274 39.0295548 -26.38540606 36.86913554 -26.875 32.8125 C-27.64325666 31.1479439 -28.41205258 29.48360814 -29.19140625 27.82421875 C-31.07860946 22.27044932 -30.71321652 15.91441781 -28.375 10.5625 C-22.41905728 0.2089795 -11.40930981 -4.44812299 0 0 Z " fill="#666EFF" transform="translate(168.875,97.1875)"/>
<path d="M0 0 C5.02478671 4.20679818 8.61263678 8.55246732 9.3515625 15.12890625 C9.50702824 21.34046918 9.12017449 25.53969464 6 31 C5.47271614 35.29359712 5.4945996 37.22505272 7.875 40.875 C10.65224889 43.65224889 11.4012489 43.96673605 15.375 44.1875 C19.58582299 44.05440102 19.58582299 44.05440102 23 42 C24.51572997 39.72902742 25.73871305 37.43248197 27 35 C34.04309246 38.62216184 37.54605728 43.97123926 40.28515625 51.1875 C41.53345774 56.09885012 41.31086787 60.97430274 41 66 C40.44570313 66.25394531 39.89140625 66.50789063 39.3203125 66.76953125 C38.59585938 67.11371094 37.87140625 67.45789063 37.125 67.8125 C36.40570313 68.14894531 35.68640625 68.48539062 34.9453125 68.83203125 C32.69457194 69.99467097 32.69457194 69.99467097 31 73 C30.53548322 78.01678126 30.77795865 81.0731371 34 85 C35.94115768 86.52978652 37.93858052 87.96614812 39.94140625 89.4140625 C46.25202751 94.27575554 49.97246563 100.30458544 52 108 C52.41807189 111.40728589 52.3449059 114.58926392 52 118 C51.92910156 118.75152344 51.85820312 119.50304687 51.78515625 120.27734375 C50.4992382 128.49855014 45.51620636 135.27340526 39.125 140.4375 C33.24692476 144.44271442 27.21208408 145.84995683 20.25 146.8125 C16.67453284 147.430172 14.31016553 147.98660719 11.75 150.625 C9.82765793 154.33237398 9.64382636 156.06514828 10.21484375 160.0703125 C11.35046455 162.86134074 12.58911456 164.17703916 15 166 C18.49272252 166.69779382 18.49272252 166.69779382 22.25 166.75 C23.51328125 166.80671875 24.7765625 166.8634375 26.078125 166.921875 C27.04234375 166.94765625 28.0065625 166.9734375 29 167 C25.45304868 176.71556231 20.24166422 182.13180037 11.2109375 187.0546875 C4.20696184 190.0493202 -4.48974403 190.07092555 -11.6875 187.875 C-21.31953374 182.42290543 -28.40912063 177.31168936 -32.35748291 166.55831909 C-33.70970404 161.1741617 -33.36015572 155.60941821 -33.29296875 150.09375 C-33.28736317 148.75997396 -33.28309763 147.42619169 -33.28010559 146.09240723 C-33.26873227 142.6070811 -33.23933169 139.12213888 -33.20599365 135.63696289 C-33.1751291 132.07052807 -33.1615655 128.50403031 -33.14648438 124.9375 C-33.11445327 117.95817711 -33.06334979 110.97910706 -33 104 C-32.19175781 104.48210937 -31.38351563 104.96421875 -30.55078125 105.4609375 C-28.94783203 106.40839844 -28.94783203 106.40839844 -27.3125 107.375 C-26.25675781 108.00148438 -25.20101562 108.62796875 -24.11328125 109.2734375 C-18.68305588 112.28493012 -14.20604638 113.97792246 -8 113 C-4.99302171 111.46452173 -3.46422333 110.38113648 -2.37109375 107.12890625 C-1.76261125 103.74061949 -1.68813676 101.75994261 -3.01953125 98.515625 C-5.72212361 95.08274634 -8.8162909 93.59238067 -12.6875 91.6875 C-13.38939453 91.32849609 -14.09128906 90.96949219 -14.81445312 90.59960938 C-16.53679405 89.720864 -18.26759902 88.85874243 -20 88 C-20 87.34 -20 86.68 -20 86 C-21.32 85.34 -22.64 84.68 -24 84 C-24 83.34 -24 82.68 -24 82 C-24.66 82 -25.32 82 -26 82 C-26.98753064 80.27559635 -27.96468806 78.54524974 -28.9375 76.8125 C-29.48277344 75.84957031 -30.02804688 74.88664062 -30.58984375 73.89453125 C-32.7226185 69.51673044 -33.12487049 65.50747612 -33.16113281 60.67822266 C-33.17074036 59.6400943 -33.1803479 58.60196594 -33.19024658 57.53237915 C-33.19449646 56.42083466 -33.19874634 55.30929016 -33.203125 54.1640625 C-33.20882507 53.01134857 -33.21452515 51.85863464 -33.22039795 50.67098999 C-33.22983309 48.23509638 -33.23637602 45.79919008 -33.24023438 43.36328125 C-33.24994617 39.64560632 -33.28098703 35.92848293 -33.3125 32.2109375 C-33.31902994 29.84114911 -33.32428045 27.47135677 -33.328125 25.1015625 C-33.3404718 23.99406647 -33.3528186 22.88657043 -33.36553955 21.74551392 C-33.34533892 14.71535525 -32.91657368 9.3497886 -28.1328125 3.85546875 C-19.42095707 -3.38181193 -10.51513326 -5.97919342 0 0 Z " fill="#7068FF" transform="translate(236,99)"/>
</svg>
